<?xml version="1.0" encoding="UTF-8"?> <svg xmlns="http://www.w3.org/2000/svg" xmlns:xlink="http://www.w3.org/1999/xlink" viewBox="0 0 803.5 215.22"><defs><style>.m{fill:#414042;}.n,.o,.p,.q,.r,.s,.t,.u,.v,.w{mix-blend-mode:multiply;}.o{fill:url(#e);}.p{fill:url(#d);}.q{fill:url(#g);}.r{fill:url(#f);}.s{fill:url(#j);}.t{fill:url(#k);}.u{fill:url(#l);}.v{fill:url(#h);}.w{fill:url(#i);}.x{isolation:isolate;}</style><linearGradient id="d" x1="-1609.56" y1="-496.3" x2="-1504.27" y2="-496.3" gradientTransform="translate(-1486.13 -238.92) rotate(172.63)" gradientUnits="userSpaceOnUse"><stop offset=".35" stop-color="#3f73b9"></stop><stop offset="1" stop-color="#1d439b"></stop></linearGradient><linearGradient id="e" x1="-1574.24" y1="-572.85" x2="-1572.62" y2="-466.59" gradientTransform="translate(-1486.13 -238.92) rotate(172.63)" gradientUnits="userSpaceOnUse"><stop offset=".35" stop-color="#77a4d7"></stop><stop offset="1" stop-color="#4568b1"></stop></linearGradient><linearGradient id="f" x1="-1606.06" y1="-459.52" x2="-1580.97" y2="-459.52" xlink:href="#e"></linearGradient><linearGradient id="g" x1="-561.37" y1="-829.1" x2="-456.07" y2="-829.1" gradientTransform="translate(-286.23 1061.21) rotate(52.64)" gradientUnits="userSpaceOnUse"><stop offset="0" stop-color="#fcb017"></stop><stop offset=".17" stop-color="#fbac18"></stop><stop offset=".34" stop-color="#f9a11a"></stop><stop offset=".64" stop-color="#f58521"></stop><stop offset="1" stop-color="#f05b2c"></stop></linearGradient><linearGradient id="h" x1="-526.04" y1="-905.66" x2="-524.43" y2="-799.39" xlink:href="#g"></linearGradient><linearGradient id="i" x1="-557.86" y1="-792.32" x2="-532.77" y2="-792.32" xlink:href="#g"></linearGradient><linearGradient id="j" x1="-800.21" y1="239.42" x2="-694.91" y2="239.42" gradientTransform="translate(240.09 -627.41) rotate(-67.36)" gradientUnits="userSpaceOnUse"><stop offset="0" stop-color="#78cab5"></stop><stop offset=".13" stop-color="#72c9bc"></stop><stop offset=".33" stop-color="#61c7cf"></stop><stop offset=".38" stop-color="#5cc7d6"></stop><stop offset=".5" stop-color="#54c5d4"></stop><stop offset=".66" stop-color="#41c1ce"></stop><stop offset=".85" stop-color="#21bac5"></stop><stop offset="1" stop-color="#05b4be"></stop></linearGradient><linearGradient id="k" x1="-764.88" y1="162.87" x2="-763.27" y2="269.13" xlink:href="#j"></linearGradient><linearGradient id="l" x1="-796.7" y1="276.21" x2="-771.61" y2="276.21" gradientTransform="translate(1020.54 120.41) rotate(13.73)" xlink:href="#j"></linearGradient></defs><g class="x"><g id="a"></g><g id="b"><g id="c"><g><g><g><path class="m" d="M244.77,166.69c.52,.61,.77,1.4,.77,2.36,0,1.24-.46,2.19-1.37,2.86-.91,.67-2.26,1-4.05,1h-6.64v-14.43h6.23c1.61,0,2.85,.32,3.74,.97,.89,.64,1.33,1.56,1.33,2.74,0,.8-.2,1.47-.59,2.03s-.93,.97-1.62,1.25c.95,.21,1.68,.61,2.2,1.23Zm-9.76-6.96v5.24h4.6c1.17,0,2.07-.22,2.7-.67,.63-.45,.95-1.1,.95-1.95s-.32-1.5-.95-1.95c-.63-.45-1.53-.67-2.7-.67h-4.6Zm8.02,11.26c.66-.44,.99-1.13,.99-2.06,0-1.8-1.31-2.7-3.92-2.7h-5.09v5.42h5.09c1.29,0,2.27-.22,2.93-.66Z"></path><path class="m" d="M262.62,162.06v10.84h-1.4v-1.98c-.38,.66-.91,1.17-1.59,1.54-.67,.36-1.44,.55-2.31,.55-1.42,0-2.53-.39-3.35-1.19-.82-.79-1.23-1.95-1.23-3.47v-6.29h1.46v6.14c0,1.14,.28,2.01,.85,2.6,.56,.59,1.37,.89,2.41,.89,1.14,0,2.04-.35,2.7-1.04,.66-.69,.99-1.66,.99-2.9v-5.69h1.46Z"></path><path class="m" d="M270.82,159.39c-.21-.21-.31-.45-.31-.74s.1-.51,.31-.72c.21-.21,.46-.31,.76-.31s.56,.1,.76,.3c.21,.2,.31,.44,.31,.71,0,.3-.1,.56-.31,.76s-.46,.31-.76,.31-.56-.1-.76-.31Zm.02,2.68h1.46v10.84h-1.46v-10.84Z"></path><path class="m" d="M280.51,157.61h1.46v15.29h-1.46v-15.29Z"></path><path class="m" d="M300.07,157.61v15.29h-1.4v-2.14c-.44,.73-1.02,1.28-1.74,1.67-.72,.39-1.54,.58-2.44,.58-1.02,0-1.94-.23-2.76-.7-.83-.47-1.47-1.12-1.94-1.96-.47-.84-.7-1.79-.7-2.86s.23-2.03,.7-2.87c.47-.84,1.11-1.49,1.94-1.95,.82-.46,1.74-.69,2.76-.69,.88,0,1.67,.18,2.38,.55,.71,.36,1.29,.9,1.74,1.6v-6.51h1.46Zm-3.41,13.57c.61-.35,1.09-.85,1.44-1.49,.35-.64,.53-1.38,.53-2.2s-.18-1.56-.53-2.21c-.35-.64-.83-1.14-1.44-1.49-.61-.35-1.3-.53-2.05-.53s-1.46,.18-2.07,.53c-.61,.35-1.09,.85-1.44,1.49-.35,.65-.53,1.38-.53,2.21s.18,1.56,.53,2.2c.35,.65,.83,1.14,1.44,1.49,.61,.35,1.3,.53,2.07,.53s1.44-.18,2.05-.53Z"></path><path class="m" d="M308.25,159.39c-.21-.21-.31-.45-.31-.74s.1-.51,.31-.72c.21-.21,.46-.31,.76-.31s.56,.1,.76,.3c.21,.2,.31,.44,.31,.71,0,.3-.1,.56-.31,.76s-.46,.31-.76,.31-.56-.1-.76-.31Zm.02,2.68h1.46v10.84h-1.46v-10.84Z"></path><path class="m" d="M326.71,163.17c.8,.79,1.21,1.94,1.21,3.45v6.29h-1.46v-6.14c0-1.13-.28-1.99-.85-2.58-.56-.59-1.37-.89-2.41-.89-1.17,0-2.09,.35-2.77,1.04-.68,.69-1.02,1.65-1.02,2.88v5.69h-1.46v-10.84h1.4v2c.4-.66,.95-1.17,1.66-1.54,.71-.36,1.53-.55,2.46-.55,1.36,0,2.44,.39,3.25,1.19Z"></path><path class="m" d="M346.1,162.06v9.52c0,1.84-.45,3.21-1.35,4.09-.9,.89-2.26,1.33-4.07,1.33-1,0-1.96-.15-2.86-.44-.9-.3-1.63-.7-2.19-1.23l.74-1.11c.52,.47,1.16,.83,1.91,1.09,.75,.26,1.54,.39,2.36,.39,1.37,0,2.38-.32,3.03-.96,.65-.64,.97-1.63,.97-2.98v-1.38c-.45,.69-1.05,1.21-1.78,1.57s-1.55,.54-2.44,.54c-1.02,0-1.94-.22-2.77-.67-.83-.45-1.48-1.07-1.96-1.88-.47-.8-.71-1.71-.71-2.73s.24-1.92,.71-2.72c.47-.8,1.12-1.41,1.95-1.85,.82-.44,1.75-.66,2.78-.66,.92,0,1.75,.18,2.49,.56,.74,.37,1.34,.91,1.79,1.61v-2.08h1.4Zm-3.42,8.63c.63-.34,1.12-.81,1.47-1.41s.53-1.29,.53-2.06-.18-1.45-.53-2.05-.84-1.07-1.46-1.4c-.63-.34-1.34-.51-2.13-.51s-1.49,.17-2.11,.49c-.62,.33-1.11,.8-1.46,1.4s-.53,1.29-.53,2.06,.18,1.46,.53,2.06,.84,1.08,1.46,1.41c.63,.34,1.33,.5,2.11,.5s1.49-.17,2.12-.5Z"></path><path class="m" d="M374.01,172.91l-3.3-4.64c-.37,.04-.76,.06-1.15,.06h-3.88v4.58h-1.53v-14.43h5.4c1.84,0,3.28,.44,4.33,1.32s1.57,2.09,1.57,3.63c0,1.13-.29,2.08-.86,2.85-.57,.78-1.38,1.34-2.44,1.68l3.53,4.95h-1.67Zm-1.22-6.82c.76-.63,1.13-1.52,1.13-2.66s-.38-2.06-1.13-2.69c-.76-.63-1.85-.94-3.28-.94h-3.83v7.24h3.83c1.43,0,2.52-.32,3.28-.95Z"></path><path class="m" d="M392.32,167.94h-9.07c.08,1.13,.52,2.04,1.3,2.73,.78,.69,1.77,1.04,2.97,1.04,.67,0,1.29-.12,1.86-.36s1.05-.59,1.46-1.06l.83,.95c-.48,.58-1.08,1.02-1.8,1.32s-1.52,.45-2.38,.45c-1.11,0-2.1-.24-2.96-.71-.86-.47-1.53-1.13-2.01-1.97s-.72-1.79-.72-2.84,.23-2.01,.69-2.85c.46-.84,1.09-1.49,1.9-1.96,.8-.47,1.71-.7,2.71-.7s1.9,.23,2.7,.7c.8,.47,1.42,1.12,1.88,1.95,.45,.83,.68,1.78,.68,2.86l-.02,.45Zm-7.86-3.7c-.71,.67-1.11,1.54-1.21,2.61h7.69c-.1-1.07-.5-1.94-1.21-2.61s-1.59-1-2.65-1-1.92,.33-2.63,1Z"></path><path class="m" d="M399.83,172.63c-.8-.25-1.43-.57-1.89-.96l.66-1.15c.45,.36,1.02,.65,1.71,.88,.69,.23,1.4,.34,2.14,.34,.99,0,1.72-.15,2.19-.46,.47-.31,.71-.75,.71-1.31,0-.4-.13-.71-.39-.94-.26-.23-.59-.4-.99-.52-.4-.12-.93-.23-1.59-.34-.88-.16-1.59-.33-2.12-.5s-.99-.46-1.37-.88c-.38-.41-.57-.98-.57-1.71,0-.91,.38-1.65,1.13-2.23s1.81-.87,3.15-.87c.7,0,1.4,.09,2.1,.28,.7,.19,1.28,.43,1.73,.73l-.64,1.18c-.89-.62-1.96-.93-3.2-.93-.93,0-1.64,.16-2.11,.49-.47,.33-.71,.76-.71,1.3,0,.41,.13,.74,.4,.99,.27,.25,.6,.43,1,.55,.4,.12,.95,.24,1.65,.36,.87,.17,1.56,.33,2.08,.49,.52,.17,.97,.45,1.34,.85,.37,.4,.56,.95,.56,1.65,0,.95-.39,1.7-1.19,2.26s-1.89,.84-3.29,.84c-.88,0-1.72-.13-2.53-.38Z"></path><path class="m" d="M413.63,159.39c-.21-.21-.31-.45-.31-.74s.1-.51,.31-.72,.46-.31,.76-.31,.56,.1,.76,.3c.21,.2,.31,.44,.31,.71,0,.3-.1,.56-.31,.76-.21,.21-.46,.31-.76,.31s-.56-.1-.76-.31Zm.02,2.68h1.46v10.84h-1.46v-10.84Z"></path><path class="m" d="M423.32,157.61h1.46v15.29h-1.46v-15.29Z"></path><path class="m" d="M432.97,159.39c-.21-.21-.31-.45-.31-.74s.1-.51,.31-.72,.46-.31,.76-.31,.56,.1,.76,.3c.21,.2,.31,.44,.31,.71,0,.3-.1,.56-.31,.76-.21,.21-.46,.31-.76,.31s-.56-.1-.76-.31Zm.02,2.68h1.46v10.84h-1.46v-10.84Z"></path><path class="m" d="M452.1,167.94h-9.07c.08,1.13,.51,2.04,1.3,2.73s1.77,1.04,2.97,1.04c.67,0,1.29-.12,1.85-.36s1.05-.59,1.46-1.06l.82,.95c-.48,.58-1.08,1.02-1.8,1.32-.72,.3-1.52,.45-2.38,.45-1.11,0-2.1-.24-2.96-.71-.86-.47-1.53-1.13-2.01-1.97-.48-.84-.72-1.79-.72-2.84s.23-2.01,.69-2.85c.46-.84,1.09-1.49,1.9-1.96,.81-.47,1.71-.7,2.71-.7s1.9,.23,2.7,.7c.8,.47,1.42,1.12,1.88,1.95,.45,.83,.68,1.78,.68,2.86l-.02,.45Zm-7.86-3.7c-.71,.67-1.11,1.54-1.21,2.61h7.69c-.1-1.07-.5-1.94-1.21-2.61s-1.59-1-2.65-1-1.92,.33-2.63,1Z"></path><path class="m" d="M468,163.17c.8,.79,1.21,1.94,1.21,3.45v6.29h-1.46v-6.14c0-1.13-.28-1.99-.85-2.58s-1.37-.89-2.41-.89c-1.17,0-2.09,.35-2.77,1.04-.68,.69-1.02,1.65-1.02,2.88v5.69h-1.46v-10.84h1.4v2c.4-.66,.95-1.17,1.66-1.54,.71-.36,1.53-.55,2.46-.55,1.36,0,2.44,.39,3.25,1.19Z"></path><path class="m" d="M478.97,172.31c-.85-.47-1.51-1.12-1.99-1.97-.48-.85-.72-1.8-.72-2.85s.24-2.01,.72-2.85c.48-.84,1.14-1.49,1.99-1.96s1.8-.7,2.88-.7c.93,0,1.77,.18,2.5,.55,.73,.36,1.32,.9,1.74,1.6l-1.09,.74c-.36-.54-.81-.94-1.36-1.21-.55-.27-1.15-.4-1.79-.4-.78,0-1.49,.18-2.11,.53s-1.11,.85-1.46,1.49c-.35,.65-.53,1.38-.53,2.21s.18,1.58,.53,2.22,.84,1.13,1.46,1.48,1.33,.53,2.11,.53c.64,0,1.24-.13,1.79-.39,.55-.26,1-.66,1.36-1.2l1.09,.74c-.43,.7-1.01,1.23-1.75,1.6-.74,.36-1.57,.55-2.49,.55-1.07,0-2.03-.23-2.88-.7Z"></path><path class="m" d="M502.33,167.94h-9.07c.08,1.13,.51,2.04,1.3,2.73s1.77,1.04,2.97,1.04c.67,0,1.29-.12,1.85-.36s1.05-.59,1.46-1.06l.82,.95c-.48,.58-1.08,1.02-1.8,1.32-.72,.3-1.52,.45-2.38,.45-1.11,0-2.1-.24-2.96-.71-.86-.47-1.53-1.13-2.01-1.97-.48-.84-.72-1.79-.72-2.84s.23-2.01,.69-2.85c.46-.84,1.09-1.49,1.9-1.96,.81-.47,1.71-.7,2.71-.7s1.9,.23,2.7,.7c.8,.47,1.42,1.12,1.88,1.95,.45,.83,.68,1.78,.68,2.86l-.02,.45Zm-7.86-3.7c-.71,.67-1.11,1.54-1.21,2.61h7.69c-.1-1.07-.5-1.94-1.21-2.61s-1.59-1-2.65-1-1.92,.33-2.63,1Z"></path><path class="m" d="M518.97,159.39c-.21-.21-.31-.45-.31-.74s.1-.51,.31-.72,.46-.31,.76-.31,.56,.1,.76,.3c.21,.2,.31,.44,.31,.71,0,.3-.1,.56-.31,.76-.21,.21-.46,.31-.76,.31s-.56-.1-.76-.31Zm.02,2.68h1.46v10.84h-1.46v-10.84Z"></path><path class="m" d="M537.43,163.17c.8,.79,1.21,1.94,1.21,3.45v6.29h-1.46v-6.14c0-1.13-.28-1.99-.85-2.58s-1.37-.89-2.41-.89c-1.17,0-2.09,.35-2.77,1.04-.68,.69-1.02,1.65-1.02,2.88v5.69h-1.46v-10.84h1.4v2c.4-.66,.95-1.17,1.66-1.54,.71-.36,1.53-.55,2.46-.55,1.36,0,2.44,.39,3.25,1.19Z"></path><path class="m" d="M561.97,172.25c-.27,.25-.61,.44-1.02,.57-.41,.13-.83,.2-1.27,.2-1.02,0-1.8-.27-2.35-.83-.55-.55-.83-1.33-.83-2.33v-6.55h-1.94v-1.24h1.94v-2.37h1.46v2.37h3.3v1.24h-3.3v6.47c0,.65,.16,1.14,.48,1.47,.32,.34,.79,.5,1.39,.5,.3,0,.59-.05,.88-.14s.53-.23,.73-.41l.51,1.05Z"></path><path class="m" d="M577.52,163.17c.8,.79,1.21,1.94,1.21,3.45v6.29h-1.46v-6.14c0-1.13-.28-1.99-.85-2.58s-1.37-.89-2.41-.89c-1.17,0-2.09,.35-2.77,1.04-.68,.69-1.02,1.65-1.02,2.88v5.69h-1.46v-15.29h1.46v6.35c.4-.63,.95-1.12,1.65-1.46s1.5-.51,2.41-.51c1.36,0,2.44,.39,3.25,1.19Z"></path><path class="m" d="M596.31,167.94h-9.07c.08,1.13,.51,2.04,1.3,2.73s1.77,1.04,2.97,1.04c.67,0,1.29-.12,1.85-.36s1.05-.59,1.46-1.06l.82,.95c-.48,.58-1.08,1.02-1.8,1.32-.72,.3-1.52,.45-2.38,.45-1.11,0-2.1-.24-2.96-.71-.86-.47-1.53-1.13-2.01-1.97-.48-.84-.72-1.79-.72-2.84s.23-2.01,.69-2.85c.46-.84,1.09-1.49,1.9-1.96,.81-.47,1.71-.7,2.71-.7s1.9,.23,2.7,.7c.8,.47,1.42,1.12,1.88,1.95,.45,.83,.68,1.78,.68,2.86l-.02,.45Zm-7.86-3.7c-.71,.67-1.11,1.54-1.21,2.61h7.69c-.1-1.07-.5-1.94-1.21-2.61s-1.59-1-2.65-1-1.92,.33-2.63,1Z"></path><path class="m" d="M614.17,172.52c-.98-.34-1.74-.8-2.28-1.36l.6-1.18c.52,.52,1.22,.95,2.08,1.27,.87,.32,1.76,.48,2.68,.48,1.29,0,2.26-.24,2.91-.71s.97-1.09,.97-1.84c0-.58-.18-1.04-.53-1.38s-.78-.61-1.29-.79c-.51-.19-1.22-.39-2.12-.61-1.09-.28-1.95-.54-2.6-.79s-1.2-.64-1.66-1.17c-.46-.52-.69-1.23-.69-2.12,0-.73,.19-1.39,.58-1.99s.98-1.08,1.77-1.43,1.79-.54,2.97-.54c.83,0,1.63,.11,2.42,.34,.79,.23,1.47,.54,2.05,.94l-.51,1.22c-.6-.4-1.25-.7-1.94-.9-.69-.2-1.36-.3-2.02-.3-1.26,0-2.22,.24-2.86,.73-.64,.49-.96,1.12-.96,1.89,0,.58,.17,1.04,.53,1.39s.79,.62,1.32,.8c.53,.18,1.24,.39,2.13,.61,1.06,.26,1.91,.52,2.57,.77,.65,.25,1.21,.64,1.66,1.15,.45,.51,.68,1.21,.68,2.09,0,.73-.2,1.39-.59,1.99s-.99,1.07-1.8,1.42-1.81,.52-2.99,.52c-1.07,0-2.1-.17-3.08-.51Z"></path><path class="m" d="M638.54,163.17c.8,.79,1.21,1.94,1.21,3.45v6.29h-1.46v-6.14c0-1.13-.28-1.99-.85-2.58s-1.37-.89-2.41-.89c-1.17,0-2.09,.35-2.77,1.04-.68,.69-1.02,1.65-1.02,2.88v5.69h-1.46v-10.84h1.4v2c.4-.66,.95-1.17,1.66-1.54,.71-.36,1.53-.55,2.46-.55,1.36,0,2.44,.39,3.25,1.19Z"></path><path class="m" d="M649.49,172.3c-.84-.47-1.5-1.13-1.98-1.97-.48-.84-.72-1.79-.72-2.84s.24-2.01,.72-2.85c.48-.84,1.14-1.49,1.98-1.96,.84-.47,1.78-.7,2.82-.7s1.98,.23,2.82,.7c.84,.47,1.49,1.12,1.97,1.96,.47,.84,.71,1.79,.71,2.85s-.24,2.01-.71,2.84c-.47,.84-1.13,1.49-1.97,1.97-.84,.47-1.78,.71-2.82,.71s-1.99-.24-2.82-.71Zm4.89-1.11c.61-.35,1.09-.85,1.43-1.49,.34-.64,.52-1.38,.52-2.2s-.17-1.56-.52-2.21c-.34-.64-.82-1.14-1.43-1.49-.61-.35-1.3-.53-2.07-.53s-1.46,.18-2.07,.53c-.61,.35-1.09,.85-1.44,1.49-.35,.65-.53,1.38-.53,2.21s.18,1.56,.53,2.2c.35,.65,.83,1.14,1.44,1.49,.61,.35,1.3,.53,2.07,.53s1.46-.18,2.07-.53Z"></path><path class="m" d="M680.54,162.06l-4.1,10.84h-1.38l-3.42-8.88-3.42,8.88h-1.38l-4.08-10.84h1.4l3.4,9.21,3.48-9.21h1.26l3.46,9.21,3.44-9.21h1.34Z"></path><path class="m" d="M695.88,162.06l-5.42,12.14c-.44,1.02-.95,1.74-1.53,2.16-.58,.43-1.27,.64-2.08,.64-.52,0-1.01-.08-1.46-.25-.45-.17-.85-.41-1.17-.74l.68-1.09c.55,.55,1.21,.82,1.98,.82,.49,0,.92-.14,1.27-.41,.35-.27,.68-.74,.98-1.4l.47-1.05-4.84-10.82h1.53l4.08,9.21,4.08-9.21h1.44Z"></path><path class="m" d="M723.89,158.48l-6.39,14.43h-1.5l-6.39-14.43h1.65l5.52,12.53,5.57-12.53h1.55Z"></path><path class="m" d="M736.01,163.04c.76,.71,1.13,1.76,1.13,3.14v6.72h-1.4v-1.69c-.33,.56-.81,1-1.45,1.32s-1.4,.47-2.28,.47c-1.21,0-2.17-.29-2.89-.87-.71-.58-1.07-1.34-1.07-2.29s.33-1.66,1-2.23c.67-.56,1.73-.85,3.18-.85h3.44v-.66c0-.93-.26-1.65-.78-2.13s-1.29-.73-2.29-.73c-.69,0-1.35,.11-1.98,.34-.63,.23-1.18,.54-1.63,.94l-.66-1.09c.55-.47,1.21-.83,1.98-1.08,.77-.25,1.58-.38,2.43-.38,1.41,0,2.5,.35,3.26,1.06Zm-1.65,8.25c.59-.38,1.03-.92,1.32-1.64v-1.77h-3.4c-1.85,0-2.78,.64-2.78,1.94,0,.63,.24,1.13,.72,1.49,.48,.36,1.15,.55,2.02,.55s1.53-.19,2.12-.57Z"></path><path class="m" d="M745.25,157.61h1.46v15.29h-1.46v-15.29Z"></path><path class="m" d="M754.91,157.61h1.46v15.29h-1.46v-15.29Z"></path><path class="m" d="M774.02,167.94h-9.07c.08,1.13,.51,2.04,1.3,2.73s1.77,1.04,2.97,1.04c.67,0,1.29-.12,1.85-.36s1.05-.59,1.46-1.06l.82,.95c-.48,.58-1.08,1.02-1.8,1.32-.72,.3-1.52,.45-2.38,.45-1.11,0-2.1-.24-2.96-.71-.86-.47-1.53-1.13-2.01-1.97-.48-.84-.72-1.79-.72-2.84s.23-2.01,.69-2.85c.46-.84,1.09-1.49,1.9-1.96,.81-.47,1.71-.7,2.71-.7s1.9,.23,2.7,.7c.8,.47,1.42,1.12,1.88,1.95,.45,.83,.68,1.78,.68,2.86l-.02,.45Zm-7.86-3.7c-.71,.67-1.11,1.54-1.21,2.61h7.69c-.1-1.07-.5-1.94-1.21-2.61s-1.59-1-2.65-1-1.92,.33-2.63,1Z"></path><path class="m" d="M790.06,162.06l-5.42,12.14c-.44,1.02-.95,1.74-1.53,2.16-.58,.43-1.27,.64-2.08,.64-.52,0-1.01-.08-1.46-.25-.45-.17-.85-.41-1.17-.74l.68-1.09c.55,.55,1.21,.82,1.98,.82,.49,0,.92-.14,1.27-.41s.68-.74,.98-1.4l.47-1.05-4.84-10.82h1.53l4.08,9.21,4.08-9.21h1.44Z"></path><path class="m" d="M796.5,172.63c-.8-.25-1.43-.57-1.89-.96l.66-1.15c.45,.36,1.02,.65,1.71,.88,.69,.23,1.4,.34,2.14,.34,.99,0,1.72-.15,2.19-.46,.47-.31,.71-.75,.71-1.31,0-.4-.13-.71-.39-.94-.26-.23-.59-.4-.99-.52-.4-.12-.93-.23-1.59-.34-.88-.16-1.59-.33-2.12-.5s-.99-.46-1.37-.88c-.38-.41-.57-.98-.57-1.71,0-.91,.38-1.65,1.13-2.23,.76-.58,1.81-.87,3.15-.87,.7,0,1.4,.09,2.1,.28,.7,.19,1.28,.43,1.73,.73l-.64,1.18c-.89-.62-1.96-.93-3.2-.93-.93,0-1.64,.16-2.11,.49-.47,.33-.71,.76-.71,1.3,0,.41,.13,.74,.4,.99,.27,.25,.6,.43,1,.55,.4,.12,.95,.24,1.65,.36,.87,.17,1.56,.33,2.08,.49,.52,.17,.97,.45,1.34,.85,.37,.4,.56,.95,.56,1.65,0,.95-.39,1.7-1.19,2.26s-1.89,.84-3.29,.84c-.88,0-1.72-.13-2.53-.38Z"></path></g><g><path class="m" d="M230.71,125.58v-58.08h26.44c11.88,0,17.81,5.19,17.81,15.58,0,7.02-4.62,12.84-13.87,17.45l18.42,25.13h-13.58l-17.69-25.34v-4.92c10.3-1.76,15.46-5.76,15.46-12,0-4.28-2.41-6.43-7.24-6.43h-14.76v48.6h-10.98Z"></path><path class="m" d="M301.6,82.95c12.96,0,19.44,6.62,19.44,19.85,0,1.76-.12,3.53-.37,5.29h-28.35c0,6.02,4.42,9.03,13.26,9.03,4.31,0,8.62-.41,12.93-1.22v8.54c-3.77,.81-8.35,1.22-13.75,1.22-15.48,0-23.22-7.28-23.22-21.84s6.68-20.86,20.05-20.86Zm-9.27,17.65h18.22v-.32c0-5.91-2.98-8.87-8.95-8.87s-8.79,3.06-9.27,9.19Z"></path><path class="m" d="M329.14,123.62v-8.95c4.74,1.9,10.22,2.85,16.43,2.85,4.64,0,6.95-1.49,6.95-4.47s-1.56-4.27-4.68-4.27h-7.73c-8.68,0-13.02-4.27-13.02-12.81s6.33-13.42,18.99-13.42c5.37,0,10.43,.81,15.17,2.44v8.95c-4.75-1.9-9.9-2.85-15.46-2.85-5.83,0-8.74,1.49-8.74,4.47s1.69,4.27,5.08,4.27h6.91c9.49,0,14.24,4.27,14.24,12.81s-6.05,13.42-18.14,13.42c-5.94,0-11.28-.81-16.02-2.44Z"></path><path class="m" d="M381.6,67.5v8.54h-10.78v-8.54h10.78Zm0,15.46v42.71h-10.78v-42.71h10.78Z"></path><path class="m" d="M402.55,67.5v58.16h-10.78v-58.16h10.78Z"></path><path class="m" d="M423.5,67.5v8.54h-10.78v-8.54h10.78Zm0,15.46v42.71h-10.78v-42.71h10.78Z"></path><path class="m" d="M451.68,82.95c12.96,0,19.44,6.62,19.44,19.85,0,1.76-.12,3.53-.37,5.29h-28.35c0,6.02,4.42,9.03,13.26,9.03,4.31,0,8.62-.41,12.93-1.22v8.54c-3.77,.81-8.35,1.22-13.75,1.22-15.48,0-23.22-7.28-23.22-21.84s6.68-20.86,20.05-20.86Zm-9.27,17.65h18.22v-.32c0-5.91-2.98-8.87-8.95-8.87s-8.78,3.06-9.27,9.19Z"></path><path class="m" d="M479.22,125.66v-42.71h8.34l1.34,6.26c4.09-4.18,8.76-6.26,13.99-6.26,10.11,0,15.17,5.26,15.17,15.78v26.92h-10.78v-26.92c0-4.72-2.35-7.08-7.04-7.08-3.5,0-6.91,1.4-10.25,4.19v29.81h-10.78Z"></path><path class="m" d="M559.74,124.44c-3.52,.81-7.19,1.22-10.98,1.22-15.18,0-22.78-7.39-22.78-22.17,0-13.69,7.59-20.54,22.78-20.54,3.8,0,7.46,.41,10.98,1.22v8.54c-3.52-.81-6.91-1.22-10.17-1.22-8.54,0-12.81,4-12.81,12,0,9.08,4.27,13.62,12.81,13.62,3.25,0,6.64-.41,10.17-1.22v8.54Z"></path><path class="m" d="M584.88,82.95c12.96,0,19.44,6.62,19.44,19.85,0,1.76-.12,3.53-.37,5.29h-28.35c0,6.02,4.42,9.03,13.26,9.03,4.31,0,8.62-.41,12.93-1.22v8.54c-3.77,.81-8.35,1.22-13.75,1.22-15.48,0-23.22-7.28-23.22-21.84s6.68-20.86,20.05-20.86Zm-9.27,17.65h18.22v-.32c0-5.91-2.98-8.87-8.95-8.87s-8.78,3.06-9.27,9.19Z"></path><path class="m" d="M631.73,125.66v-58.16h10.78v24h28.67v-24h10.78v58.16h-10.78v-24.81h-28.67v24.81h-10.78Z"></path><path class="m" d="M731.58,82.95v42.71h-8.42l-1.3-5.45c-4.91,3.63-10.11,5.45-15.62,5.45-8.73,0-13.1-5.17-13.1-15.5v-27.21h10.78v26.92c0,4.72,2.06,7.08,6.18,7.08,3.5,0,7.06-1.4,10.7-4.19v-29.81h10.78Z"></path><path class="m" d="M741.75,67.5h10.78v18.71c3.23-2.17,6.82-3.25,10.78-3.25,12.15,0,18.22,6.83,18.22,20.5,0,14.8-6.96,22.21-20.86,22.21-5.86,0-12.16-.58-18.91-1.75v-56.41Zm10.78,48.28c2.47,.79,5.33,1.18,8.58,1.18,6.51,0,9.76-4.6,9.76-13.79,0-7.51-2.81-11.27-8.42-11.27-3.63,0-6.94,.73-9.92,2.2v21.68Z"></path></g></g><g><g><g><path class="p" d="M88.01,81.62c18.14-1.3,33.47-17.74,40.02-24.76,13.83-17.8,31.69-22.92,45.49-12.54-5.83-4.03-6.58-4.55-11.47-7.06-6.82-3.04-10.24-4.57-19.73-6.47-5.78-.79-10.77-1.47-18.72-.91-4.52,.54-10.15,1.2-16.75,3.32-6.05,2.2-7.48,2.73-13.71,6.03-1.92,1.18-4.48,2.77-6.34,4.04-3.53,2.53-6.94,5.85-10.12,9.94-13.56,19.79-1.91,29.36,11.32,28.42h0Z"></path><path class="o" d="M93.15,39.22c5.51-2.87,6.99-3.64,13.71-6.03,4.36-1.23,9.79-2.76,16.75-3.32,6.02-.24,10.77-.43,18.72,.91,7.36,1.61,11.06,2.42,19.73,6.47,6.39,3.48,7.06,3.84,11.47,7.06,1.97,1.48,3.87,3.29,5.65,5.41,9.61,11.45,14.05,29.88,13.21,49.44-4.36,36.01-33.64,39.39-48.83,21.04-8.98-10.85-9.74-23.12-10.15-29.72,.74-17.24-3.18-33.48-11.64-43.57-9.7-11.56-22.98-12.21-34.94-3.65,1.88-1.24,4.37-2.95,6.34-4.04h0Z"></path></g><circle class="r" cx="153.23" cy="12.54" r="12.54"></circle></g><g class="n"><g><path class="q" d="M104.98,168.87c-10.19-15.06-32.1-20.12-41.45-22.28-22.33-3.07-35.69-15.98-33.61-33.12-.58,7.07-.65,7.97-.38,13.46,.78,7.43,1.16,11.16,4.26,20.32,2.2,5.4,4.11,10.06,8.57,16.67,2.73,3.65,6.12,8.19,11.25,12.84,4.93,4.14,6.1,5.12,12.08,8.86,1.99,1.07,4.64,2.5,6.68,3.47,3.95,1.79,8.54,3.09,13.67,3.79,23.92,1.85,26.38-13.02,18.95-24.01h0Z"></path><path class="v" d="M65.69,185.62c-5.24-3.33-6.65-4.23-12.08-8.86-3.25-3.16-7.29-7.1-11.25-12.84-3.22-5.09-5.76-9.12-8.57-16.67-2.28-7.19-3.43-10.79-4.26-20.32-.18-7.27-.2-8.03,.38-13.46,.3-2.45,.91-4.99,1.86-7.6,5.11-14.05,18.85-27.11,36.21-36.17,33.36-14.23,50.94,9.44,42.64,31.77-4.91,13.2-15.15,20-20.66,23.65-15.3,7.98-27.4,19.49-31.91,31.87-5.16,14.18,.91,26.01,14.31,32.09-2.02-1.01-4.74-2.31-6.68-3.47h0Z"></path></g><circle class="w" cx="12.55" cy="146.93" r="12.54"></circle></g><g><g><path class="s" d="M165.99,111.66c-7.95,16.36-1.37,37.86,1.43,47.04,8.51,20.88,4,38.9-11.88,45.66,6.41-3.03,7.23-3.42,11.85-6.4,6.05-4.39,9.08-6.59,15.47-13.85,3.57-4.61,6.66-8.59,10.15-15.75,1.8-4.18,4.03-9.39,5.5-16.16,1.12-6.34,1.38-7.85,1.63-14.89-.06-2.26-.15-5.27-.33-7.52-.42-4.32-1.6-8.94-3.55-13.73-10.35-21.64-24.47-16.34-30.27-4.4h0Z"></path><path class="t" d="M200.14,137.31c-.27,6.2-.34,7.87-1.63,14.89-1.12,4.39-2.51,9.86-5.5,16.16-2.8,5.33-5.02,9.54-10.15,15.75-5.08,5.57-7.63,8.37-15.47,13.85-6.21,3.79-6.86,4.19-11.85,6.4-2.27,.97-4.78,1.7-7.51,2.19-14.72,2.59-32.9-2.77-49.43-13.28-29.01-21.78-17.29-48.83,6.2-52.81,13.89-2.35,24.9,3.12,30.81,6.07,14.56,9.26,30.58,13.99,43.56,11.7,14.86-2.62,22.07-13.8,20.64-28.43,.14,2.25,.37,5.26,.33,7.52h0Z"></path></g><circle class="u" cx="193.21" cy="202.68" r="12.54" transform="translate(-36.95 362.16) rotate(-81.09)"></circle></g></g></g></g></g></g></svg> 